# xmcd CD database file
#
# Track frame offsets:
#	150
#	17572
#	36210
#	64162
#	79694
#	95679
#	118255
#	140211
#	163174
#	175926
#	188979
#	201708
#
# Disc length: 3072 seconds
#
# Revision: 0
# Processed by: cddbd v1.5.2PL0 Copyright (c) Steve Scherf et al.
# Submitted via: CDex 1.70beta2
#
DISCID=b50bfe0c
DTITLE=Round Midnight - djaezl
DYEAR=1996
DGENRE=Jazz
TTITLE0=Blues In The Closet
TTITLE1=All Of Me
TTITLE2=Boplicity
TTITLE3=Four
TTITLE4=Watermelon Man
TTITLE5=Misty
TTITLE6=Song For My Father
TTITLE7=So What
TTITLE8=Blue Monk
TTITLE9=Daahoud
TTITLE10=The Preacher
TTITLE11=Round Midnight
EXTD=YEAR: 1996
EXTT0=
EXTT1=
EXTT2=
EXTT3=
EXTT4=
EXTT5=
EXTT6=
EXTT7=
EXTT8=
EXTT9=
EXTT10=
EXTT11=
PLAYORDER=
